# xmcd
#
# Track frame offsets:
#	150
#	16225
#	33270
#	45935
#	59362
#	75015
#	91417
#	106840
#	120667
#	135220
#
# Disc length: 1986 seconds
#
# Revision: 0
# Processed by: cddbd v1.5.2PL0 Copyright (c) Steve Scherf et al.
# Submitted via: audiograbber 1.83.01
#
DISCID=6207c00a
DTITLE=Grupo Bryndis - Poemas
DYEAR=1900
DGENRE=
TTITLE0=Te Juro Que Te Amo
TTITLE1=Te Vas Con El
TTITLE2=Te He Prometido
TTITLE3=Y Todo Acabo
TTITLE4=Lo Nuestra Termino
TTITLE5=Cuando Llega Un Adios
TTITLE6=Mi Dulce Amor
TTITLE7=Otro Ocupa Mi Lugar
TTITLE8=Vete Ya
TTITLE9=Te Esperare
EXTD=
EXTT0=
EXTT1=
EXTT2=
EXTT3=
EXTT4=
EXTT5=
EXTT6=
EXTT7=
EXTT8=
EXTT9=
PLAYORDER=
